<?xml version="1.0" encoding="UTF-8"?>
<svg id="Ebene_1" xmlns="http://www.w3.org/2000/svg" width="21cm" height="21cm" version="1.1" viewBox="0 0 595.3 595.3">
  <!-- Generator: Adobe Illustrator 29.1.0, SVG Export Plug-In . SVG Version: 2.1.0 Build 142)  -->
  <defs>
    <style>
      .st0 {
        fill: #ffed00;
      }
    </style>
  </defs>
  <path class="st0" d="M46.7,283.6h95.2v18.8H46.7v-18.8ZM179.5,194.6l-68.3-67,15.7-14.4,67,67-14.4,14.4ZM126.8,475.2l-15.7-14.4,68.3-67,14.4,14.4-67,67ZM203.3,294.9c0-48.2,40.1-87.1,89.6-87.1s88.3,38.2,88.3,87.1-38.2,89.6-88.3,89.6-89.6-38.8-89.6-89.6ZM362.3,294.9c0-38.2-30.7-68.3-69.5-68.3s-70.8,30.1-70.8,68.3,30.1,70.8,70.8,70.8,69.5-30.7,69.5-70.8ZM302.2,143.9h-18.8V47.5h18.8v96.5ZM283.4,444.5h18.8v97.1h-18.8v-97.1ZM458.8,113.2l15.7,14.4-68.3,67-14.4-14.4,67-67ZM458.8,475.2l-67-67,14.4-14.4,68.3,67-15.7,14.4ZM443.8,302.4v-18.8h95.2v18.8h-95.2Z"/>
</svg>